<svg width="192" height="53" viewBox="0 0 192 53" fill="none" xmlns="http://www.w3.org/2000/svg">
<path d="M15.8681 50.2227L10.6165 41.1267L18.3235 27.8144L23.221 36.2978L52.1317 36.2822L43.9282 50.3483L15.8681 50.2227Z" fill="#FFAD64"/>
<path d="M57.294 27.2505L52.0425 36.3464L36.6602 36.3283L41.5582 27.8452L27.0894 2.81552L43.3728 2.88696L57.294 27.2505Z" fill="#ADD4D3"/>
<path d="M16.6772 2.76645H27.1803L34.8557 16.0971L25.0599 16.0967L10.6181 41.142L2.53827 27.0045L16.6772 2.76645Z" fill="#FB8351"/>
<path fill-rule="evenodd" clip-rule="evenodd" d="M28.4608 0.660597L28.4295 0.606262H15.4364L0.0437622 26.9937L10.61 45.4815L10.6229 45.4592L14.6174 52.3777L45.1658 52.5145L55.8938 34.1198H55.8224L59.7854 27.2557L44.6296 0.731535L28.4608 0.660597ZM38.5119 18.2579H38.5929L30.9551 4.99259L42.1157 5.04152L54.8024 27.2445L50.8314 34.1225L40.4249 34.1281L44.0533 27.844L38.5119 18.2579ZM25.8149 4.92719L31.0229 13.9367L23.8121 13.9364L11.4672 35.3451L10.6251 36.7997L5.03331 27.0157L17.9182 4.92719H25.8149ZM20.8077 27.7966L26.3083 18.2575L33.5208 18.2577L39.063 27.8453L35.4339 34.1308L24.4679 34.1368L20.8077 27.7966ZM13.1161 41.1355L15.2088 37.5064L18.3207 32.1311L21.9739 38.4591L32.9382 38.4532L32.9205 38.4838L48.3359 38.5021L42.6903 48.1823L17.1185 48.0679L13.1161 41.1355Z" fill="#333237"/>
<path d="M72.3689 44.9978V34.8832H68.6306V33.7477H77.5399V34.8832H73.8014V44.9978H72.3689Z" fill="white"/>
<path d="M81.5204 45.173C80.0412 45.173 78.9349 44.8178 78.2013 44.1074C77.4675 43.397 77.1007 42.3023 77.1007 40.8231C77.1007 39.4956 77.4151 38.4533 78.044 37.6962C78.6845 36.9276 79.692 36.5432 81.0662 36.5432C81.8813 36.5432 82.551 36.6946 83.0751 36.9975C83.6108 37.2886 84.0068 37.6962 84.2631 38.2203C84.5308 38.7327 84.6648 39.3151 84.6648 39.9672V41.5219H78.5332C78.5797 42.1508 78.7137 42.6458 78.9349 43.0069C79.1678 43.3678 79.5113 43.6298 79.9656 43.793C80.4314 43.9443 81.0429 44.02 81.7998 44.02C82.65 44.02 83.4303 43.8745 84.1407 43.5833V44.7013C83.7797 44.8528 83.372 44.9692 82.9179 45.0507C82.4753 45.1322 82.0095 45.173 81.5204 45.173ZM78.5332 40.4913H83.3895V39.81C83.3895 39.1345 83.209 38.6163 82.8479 38.2553C82.4987 37.8826 81.9163 37.6962 81.101 37.6962C80.1112 37.6962 79.4357 37.9291 79.0746 38.395C78.7137 38.8608 78.5332 39.5596 78.5332 40.4913Z" fill="white"/>
<path d="M90.6772 45.173C89.2332 45.173 88.1617 44.8003 87.463 44.055C86.7642 43.298 86.4148 42.2323 86.4148 40.8581C86.4148 39.4024 86.8107 38.3193 87.6027 37.6089C88.3946 36.8985 89.4602 36.5432 90.7996 36.5432C91.347 36.5432 91.8012 36.584 92.1621 36.6656C92.5231 36.7354 92.8725 36.8519 93.2102 37.0149V38.1504C92.5814 37.8476 91.8652 37.6962 91.0616 37.6962C90.0368 37.6962 89.2448 37.9408 88.6858 38.43C88.1267 38.9074 87.8473 39.7168 87.8473 40.8581C87.8473 41.9529 88.0919 42.7564 88.581 43.2689C89.0702 43.7697 89.8796 44.02 91.0092 44.02C91.8127 44.02 92.5523 43.8687 93.2277 43.5658V44.7188C92.8668 44.8702 92.4766 44.9808 92.0574 45.0507C91.6497 45.1322 91.1898 45.173 90.6772 45.173Z" fill="white"/>
<path d="M94.8336 44.9978V33.2236H96.2661V37.6085C96.6505 37.294 97.0988 37.0378 97.6113 36.8398C98.1354 36.6417 98.7409 36.5427 99.428 36.5427C100.43 36.5427 101.181 36.7874 101.682 37.2765C102.182 37.7657 102.433 38.5343 102.433 39.5824V44.9978H101V39.6348C101 38.9128 100.837 38.412 100.511 38.1324C100.197 37.8414 99.6726 37.6957 98.9388 37.6957C98.4731 37.6957 97.9897 37.8005 97.489 38.0102C96.9999 38.2082 96.5922 38.4703 96.2661 38.7963V44.9978H94.8336Z" fill="white"/>
<path d="M108.146 45.1729C106.981 45.1729 106.049 44.9167 105.351 44.4042C104.652 43.8917 104.302 43.2046 104.302 42.3428C104.302 41.5509 104.547 40.8696 105.036 40.2989C105.525 39.7283 106.195 39.2217 107.045 38.7792C106.591 38.325 106.206 37.8999 105.892 37.5039C105.578 37.108 105.42 36.6304 105.42 36.0715C105.42 35.3727 105.659 34.7845 106.137 34.3071C106.626 33.8179 107.313 33.5734 108.198 33.5734C109.06 33.5734 109.729 33.8005 110.207 34.2546C110.684 34.7088 110.923 35.3144 110.923 36.0715C110.923 36.7004 110.755 37.2303 110.416 37.6612C110.079 38.0921 109.596 38.5288 108.967 38.9714L111.866 41.9236C112.064 41.4927 112.163 40.9453 112.163 40.2815V40.037H113.299V40.2815C113.299 40.7358 113.246 41.1782 113.142 41.6092C113.037 42.0401 112.885 42.4127 112.688 42.7272L114.26 44.3169L113.386 45.103L111.988 43.723C111.581 44.2237 111.051 44.5906 110.399 44.8235C109.747 45.0564 108.996 45.1729 108.146 45.1729ZM108.076 38.2726C108.623 37.9348 109.036 37.6146 109.316 37.3118C109.596 36.9973 109.735 36.6014 109.735 36.1239C109.735 35.6813 109.613 35.3319 109.368 35.0757C109.135 34.8079 108.745 34.674 108.198 34.674C107.639 34.674 107.231 34.8137 106.975 35.0932C106.731 35.3727 106.608 35.7163 106.608 36.1239C106.608 36.4966 106.736 36.8401 106.993 37.1545C107.261 37.469 107.621 37.8416 108.076 38.2726ZM108.146 44.1422C108.821 44.1422 109.398 44.0432 109.875 43.8452C110.364 43.6355 110.777 43.327 111.116 42.9194L107.918 39.6526C107.162 40.002 106.597 40.3804 106.224 40.7881C105.863 41.184 105.682 41.6907 105.682 42.308C105.682 42.9135 105.915 43.3735 106.381 43.688C106.847 43.9907 107.435 44.1422 108.146 44.1422Z" fill="#FB8351"/>
<path d="M69.195 25.5818V10.0047H73.7423V22.0986H80.7569V25.5818H69.195Z" fill="#FB8351"/>
<path d="M88.0723 25.8238C85.7825 25.8238 84.0893 25.3158 82.9928 24.2999C81.9125 23.284 81.3723 21.8005 81.3723 19.8493C81.3723 17.9143 81.9206 16.4389 83.0171 15.423C84.1136 14.391 85.7986 13.8749 88.0723 13.8749C90.3622 13.8749 92.0553 14.391 93.1518 15.423C94.2645 16.4389 94.8208 17.9143 94.8208 19.8493C94.8208 21.8005 94.2726 23.284 93.1761 24.2999C92.0795 25.3158 90.3783 25.8238 88.0723 25.8238ZM88.0723 22.51C88.8141 22.51 89.3463 22.3004 89.6688 21.8811C90.0074 21.4619 90.1767 20.7846 90.1767 19.8493C90.1767 18.9302 90.0074 18.261 89.6688 17.8418C89.3463 17.4063 88.8141 17.1886 88.0723 17.1886C87.3467 17.1886 86.8226 17.4063 86.5001 17.8418C86.1776 18.261 86.0164 18.9302 86.0164 19.8493C86.0164 20.7846 86.1776 21.4619 86.5001 21.8811C86.8226 22.3004 87.3467 22.51 88.0723 22.51Z" fill="#FB8351"/>
<path d="M101.555 29.839C100.991 29.839 100.378 29.8148 99.7172 29.7664C99.056 29.7342 98.4271 29.6697 97.8306 29.5729C97.25 29.4762 96.7663 29.3633 96.3792 29.2342V26.3317C96.8147 26.4768 97.3145 26.5978 97.8789 26.6945C98.4595 26.7913 99.048 26.8638 99.6447 26.9123C100.241 26.9606 100.789 26.9848 101.289 26.9848C102.144 26.9848 102.813 26.9364 103.297 26.8397C103.797 26.7591 104.047 26.6059 104.047 26.3801C104.047 26.1867 103.966 26.0576 103.805 25.9931C103.644 25.9447 103.337 25.9205 102.886 25.9205H99.8624C98.6852 25.9205 97.7741 25.7351 97.1291 25.3642C96.5002 24.9772 96.1858 24.4048 96.1858 23.6469C96.1858 22.5825 96.7743 21.8408 97.9514 21.4216C97.2904 21.0829 96.8066 20.6556 96.5002 20.1396C96.1938 19.6236 96.0406 18.9705 96.0406 18.1804C96.0406 16.6968 96.5405 15.6084 97.5403 14.915C98.5562 14.2217 100.016 13.8749 101.918 13.8749C102.321 13.8749 102.773 13.9071 103.273 13.9716C103.773 14.0201 104.135 14.0685 104.361 14.1168H108.86L108.763 16.8742H107.24C107.53 17.2451 107.675 17.6966 107.675 18.2288C107.675 19.4059 107.328 20.3412 106.635 21.0346C105.958 21.7118 104.885 22.0505 103.418 22.0505C103.208 22.0505 102.983 22.0425 102.741 22.0262C102.499 21.994 102.273 21.9699 102.063 21.9537C101.709 21.986 101.402 22.0505 101.144 22.1472C100.886 22.2439 100.757 22.4052 100.757 22.631C100.757 22.7922 100.83 22.9052 100.975 22.9696C101.12 23.018 101.322 23.0421 101.58 23.0421H104.216C105.393 23.0421 106.32 23.3163 106.998 23.8646C107.675 24.4128 108.014 25.2191 108.014 26.2834C108.014 27.4121 107.49 28.2829 106.441 28.8956C105.393 29.5245 103.765 29.839 101.555 29.839ZM101.942 19.5591C102.652 19.5591 103.144 19.4381 103.418 19.1963C103.692 18.9544 103.829 18.5513 103.829 17.9869C103.829 17.4224 103.692 17.0113 103.418 16.7533C103.144 16.4953 102.652 16.3663 101.942 16.3663C101.281 16.3663 100.798 16.4953 100.491 16.7533C100.201 16.9952 100.056 17.4063 100.056 17.9869C100.056 18.5352 100.193 18.9383 100.467 19.1963C100.757 19.4381 101.249 19.5591 101.942 19.5591Z" fill="#FB8351"/>
<path d="M116.276 25.8238C113.986 25.8238 112.293 25.3158 111.196 24.2999C110.116 23.284 109.576 21.8005 109.576 19.8493C109.576 17.9143 110.124 16.4389 111.22 15.423C112.317 14.391 114.002 13.8749 116.276 13.8749C118.565 13.8749 120.258 14.391 121.355 15.423C122.468 16.4389 123.024 17.9143 123.024 19.8493C123.024 21.8005 122.476 23.284 121.379 24.2999C120.282 25.3158 118.582 25.8238 116.276 25.8238ZM116.276 22.51C117.017 22.51 117.549 22.3004 117.872 21.8811C118.211 21.4619 118.381 20.7846 118.381 19.8493C118.381 18.9302 118.211 18.261 117.872 17.8418C117.549 17.4063 117.017 17.1886 116.276 17.1886C115.551 17.1886 115.026 17.4063 114.703 17.8418C114.381 18.261 114.22 18.9302 114.22 19.8493C114.22 20.7846 114.381 21.4619 114.703 21.8811C115.026 22.3004 115.551 22.51 116.276 22.51Z" fill="#FB8351"/>
<path d="M125.023 12.5924V9.30289H129.933V12.5924H125.023ZM125.385 25.5814V17.4301H123.717L124.103 14.1164H129.933V25.5814H125.385Z" fill="white"/>
<path d="M132.114 30.8064V14.1168H136.057L136.275 15.0358C136.741 14.665 137.25 14.3828 137.798 14.1893C138.363 13.9797 139.015 13.8749 139.758 13.8749C141.467 13.8749 142.781 14.3102 143.701 15.181C144.635 16.0356 145.103 17.495 145.103 19.559C145.103 21.607 144.611 23.163 143.628 24.2273C142.644 25.2916 141.29 25.8237 139.564 25.8237C138.419 25.8237 137.452 25.6061 136.661 25.1706V30.8064H132.114ZM138.403 22.51C139.065 22.51 139.573 22.2761 139.927 21.8085C140.282 21.3409 140.459 20.6153 140.459 19.6316C140.459 18.6802 140.29 18.0352 139.951 17.6966C139.628 17.3579 139.129 17.1886 138.451 17.1886C137.774 17.1886 137.178 17.4144 136.661 17.8659V21.9295C136.92 22.123 137.178 22.2681 137.436 22.3648C137.694 22.4615 138.016 22.51 138.403 22.51Z" fill="white"/>
<path d="M151.163 25.8237C150.179 25.8237 149.252 25.7512 148.382 25.6061C147.527 25.477 146.85 25.3077 146.349 25.0981V21.8327C146.914 22.0908 147.583 22.2922 148.357 22.4374C149.148 22.5825 149.817 22.6551 150.364 22.6551C150.945 22.6551 151.381 22.639 151.671 22.6067C151.978 22.5745 152.13 22.4374 152.13 22.1955C152.13 21.9215 151.865 21.7118 151.333 21.5666C150.801 21.4215 150.132 21.2118 149.325 20.9378C148.276 20.5668 147.494 20.1315 146.978 19.6316C146.463 19.1317 146.205 18.4061 146.205 17.4546C146.205 16.3098 146.656 15.431 147.559 14.8182C148.463 14.1893 149.881 13.8749 151.816 13.8749C152.558 13.8749 153.324 13.9313 154.114 14.0442C154.904 14.157 155.525 14.2861 155.976 14.4312V17.6241C155.492 17.4144 154.96 17.2612 154.38 17.1645C153.816 17.0676 153.3 17.0193 152.832 17.0193C152.316 17.0193 151.856 17.0435 151.453 17.0919C151.05 17.1402 150.849 17.2773 150.849 17.5031C150.849 17.761 151.075 17.9465 151.526 18.0594C151.993 18.1723 152.614 18.3497 153.388 18.5915C154.26 18.8495 154.936 19.1317 155.42 19.4381C155.92 19.7445 156.267 20.1153 156.461 20.5507C156.669 20.9862 156.775 21.5263 156.775 22.1714C156.775 23.3324 156.298 24.2354 155.348 24.8803C154.412 25.5092 153.017 25.8237 151.163 25.8237Z" fill="white"/>
<path d="M162.635 25.8233C161.297 25.8233 160.249 25.4445 159.491 24.6865C158.734 23.9286 158.355 22.816 158.355 21.3485V14.1164H162.902V20.9858C162.902 21.9855 163.41 22.4854 164.425 22.4854C164.796 22.4854 165.159 22.4048 165.514 22.2436C165.869 22.0823 166.151 21.8807 166.361 21.6388V14.1164H170.907V25.5814H166.651L166.53 24.7107C166.079 25.0332 165.522 25.2993 164.861 25.5089C164.216 25.7185 163.474 25.8233 162.635 25.8233Z" fill="white"/>
<path d="M173.073 25.5818V14.1168H177.282L177.403 15.0358C177.903 14.6972 178.459 14.4232 179.072 14.2135C179.7 13.9877 180.386 13.8749 181.128 13.8749C181.869 13.8749 182.45 13.9797 182.869 14.1893C183.289 14.3989 183.627 14.7053 183.885 15.1084C184.401 14.7376 184.982 14.4393 185.627 14.2135C186.287 13.9877 187.062 13.8749 187.949 13.8749C189.287 13.8749 190.271 14.2296 190.9 14.9391C191.528 15.6325 191.843 16.6968 191.843 18.1319V25.5818H187.368V18.6641C187.368 18.148 187.263 17.7853 187.053 17.5756C186.845 17.3499 186.497 17.237 186.013 17.237C185.384 17.237 184.869 17.4628 184.466 17.9142C184.498 18.1239 184.514 18.3255 184.514 18.519C184.514 18.6963 184.514 18.8979 184.514 19.1237V25.5818H180.305V18.5915C180.305 18.1239 180.225 17.7853 180.064 17.5756C179.902 17.3499 179.596 17.237 179.145 17.237C178.838 17.237 178.54 17.3177 178.249 17.4789C177.958 17.6402 177.701 17.8336 177.475 18.0594V25.5818H173.073Z" fill="white"/>
<path d="M121.666 45.3173C120.454 45.3173 119.447 45.0902 118.643 44.636C117.852 44.1701 117.258 43.5238 116.862 42.6969C116.466 41.8585 116.269 40.8802 116.269 39.7622C116.269 38.5394 116.455 37.4737 116.827 36.5653C117.199 35.657 117.782 34.9581 118.574 34.469C119.366 33.9683 120.39 33.7179 121.648 33.7179C122.301 33.7179 122.888 33.7644 123.413 33.8576C123.949 33.9508 124.449 34.0788 124.916 34.242V35.4997C124.449 35.325 123.955 35.1911 123.43 35.0979C122.906 34.9931 122.354 34.9407 121.771 34.9407C120.758 34.9407 119.954 35.1328 119.36 35.5172C118.767 35.9015 118.341 36.4546 118.085 37.1767C117.828 37.8988 117.7 38.7606 117.7 39.7622C117.7 41.148 118.027 42.2195 118.678 42.9765C119.343 43.7219 120.385 44.0945 121.805 44.0945C122.33 44.0945 122.859 44.0537 123.395 43.9722C123.942 43.8907 124.449 43.7626 124.916 43.5879V44.8632C124.46 45.0029 123.966 45.1135 123.43 45.1951C122.906 45.2766 122.318 45.3173 121.666 45.3173Z" fill="white"/>
<path d="M130.797 45.3168C129.353 45.3168 128.299 44.95 127.635 44.2163C126.984 43.471 126.658 42.3995 126.658 41.002C126.658 39.616 126.99 38.5505 127.653 37.8051C128.317 37.0597 129.366 36.6871 130.797 36.6871C132.23 36.6871 133.279 37.0597 133.942 37.8051C134.606 38.5505 134.938 39.616 134.938 41.002C134.938 42.3995 134.612 43.471 133.959 44.2163C133.308 44.95 132.254 45.3168 130.797 45.3168ZM130.797 44.094C131.787 44.094 132.487 43.8494 132.894 43.3603C133.302 42.8596 133.505 42.0734 133.505 41.002C133.505 39.9305 133.297 39.1503 132.876 38.6611C132.469 38.1603 131.776 37.9099 130.797 37.9099C129.82 37.9099 129.121 38.1603 128.702 38.6611C128.294 39.1503 128.091 39.9305 128.091 41.002C128.091 42.0734 128.294 42.8596 128.702 43.3603C129.109 43.8494 129.807 44.094 130.797 44.094Z" fill="white"/>
<path d="M136.689 45.1425V43.9372H137.982V45.1425H136.689Z" fill="white"/>
</svg>
